<svg xmlns="http://www.w3.org/2000/svg" viewBox="0 0 393.81 196.22"><defs><style>.cls-1{fill:#b3b3b3;}.cls-2{fill:none;stroke:#000;stroke-miterlimit:10;stroke-width:0.69px;}</style></defs><g id="Layer_2" data-name="Layer 2"><g id="Mock_up" data-name="Mock up"><g id="Sweater_11" data-name="Sweater 11"><path class="cls-1" d="M393.44,79.39l-1.06,10.3-.17,2.88h-.12l-12.55-8.37A42.26,42.26,0,0,1,363.9,56.27C361.78,38,374.5,19,374.5,19l.56-.41c10.31,4.78,9.9,5.67,9.9,5.67s-12.46,22.2-8,35.48S393.44,79.39,393.44,79.39Z"/><path class="cls-1" d="M392.21,92.57l-3.54,59.36L386,179.39H228.31l-2.66-27.46-3.53-59.37,10.69-7c.45-.33,1.1-.82,1.86-1.43a44.23,44.23,0,0,0,15.64-28.09c2.12-18.43-10.61-37.54-10.61-37.54l-.07-.12c1.27-.58,2.7-1.23,4.31-1.94C259.05,9.82,271.25,4.1,271.25,4.1s1-.5,2.17-1.17c0,0,13.09,10.64,35.36,10S341.4,3.21,341.4,3.21c1,.52,1.68.89,1.68.89s12.19,5.72,27.3,12.35c1.76.78,3.31,1.48,4.68,2.11l-.56.41s-12.72,19-10.6,37.3a42.26,42.26,0,0,0,15.64,27.92l12.55,8.37Z"/><polygon class="cls-1" points="386.02 179.39 384.69 195.87 229.63 195.87 228.31 179.39 386.02 179.39"/><path class="cls-1" d="M337,.43a30.79,30.79,0,0,0,4.42,2.78s-10.36,9-32.62,9.67-35.36-10-35.36-10a26.78,26.78,0,0,0,3.92-2.5s10.6,7.14,29.69,7h.26C326.38,7.57,337,.43,337,.43Z"/><path class="cls-1" d="M239.7,18.51s12.73,19.11,10.61,37.54a44.23,44.23,0,0,1-15.64,28.09c-.76.61-1.41,1.1-1.86,1.43l-10.69,7-.18-2.87-1.06-10.3S232.81,73,237.32,59.71s-7.95-35.48-7.95-35.48-.43-.91,10.26-5.84Z"/><path class="cls-2" d="M228.31,179.39l1.32,16.48H384.69L386,179.39l2.65-27.46,3.54-59.36.17-2.88,1.06-10.3S381.51,73,377,59.71s8-35.48,8-35.48.41-.89-9.9-5.67c-1.37-.63-2.92-1.33-4.68-2.11C355.27,9.82,343.08,4.1,343.08,4.1s-.72-.37-1.68-.89A30.79,30.79,0,0,1,337,.43s-10.6,7.14-29.69,7H307c-19.09.14-29.69-7-29.69-7a26.78,26.78,0,0,1-3.92,2.5c-1.2.67-2.17,1.17-2.17,1.17s-12.2,5.72-27.31,12.35c-1.61.71-3,1.36-4.31,1.94-10.69,4.93-10.26,5.84-10.26,5.84s12.45,22.2,7.95,35.48-16.44,19.68-16.44,19.68l1.06,10.3.18,2.87,3.53,59.37Z"/><polyline class="cls-2" points="228.04 179.39 228.31 179.39 386.02 179.39"/><path class="cls-2" d="M239.7,18.51s12.73,19.11,10.61,37.54a44.23,44.23,0,0,1-15.64,28.09c-.76.61-1.41,1.1-1.86,1.43l-10.69,7"/><path class="cls-2" d="M374.5,19s-12.72,19-10.6,37.3a42.26,42.26,0,0,0,15.64,27.92l12.55,8.37"/><path class="cls-2" d="M273.42,2.93s13.09,10.64,35.36,10S341.4,3.21,341.4,3.21"/><path class="cls-1" d="M172.92,79.39l-1.06,10.3-.17,2.88h-.12L159,84.19a42.26,42.26,0,0,1-15.64-27.92C141.26,38,154,19,154,19l.56-.41c10.31,4.78,9.9,5.67,9.9,5.67S152,46.43,156.49,59.71,172.92,79.39,172.92,79.39Z"/><path class="cls-1" d="M171.69,92.57l-3.54,59.36-2.65,27.46H7.79L5.14,151.93,1.6,92.56l10.7-7c.45-.33,1.1-.82,1.85-1.43A44.13,44.13,0,0,0,29.79,56.05c2.12-18.43-10.6-37.54-10.6-37.54l-.08-.12c1.28-.58,2.71-1.23,4.32-1.94,9.55-4.19,17.93-8,22.81-10.27.28,1.3,4.07,17.89,14.49,30.05C71.58,48.89,86.55,59,86.55,59h.23s15-10.13,25.82-22.79C123,24.1,126.78,7.58,127.09,6.19c4.88,2.26,13.24,6.08,22.77,10.26,1.77.78,3.32,1.48,4.68,2.11L154,19s-12.72,19-10.6,37.3A42.26,42.26,0,0,0,159,84.19l12.55,8.37Z"/><polygon class="cls-1" points="165.5 179.39 164.18 195.87 9.12 195.87 7.79 179.39 165.5 179.39"/><path class="cls-1" d="M113.5,11.2c.53-1.48,1-2.87,1.37-4.12,1.09-3.54,1.62-6,1.72-6.54a48.46,48.46,0,0,0,6,3.56l4.53,2.09c-.31,1.39-4.1,17.91-14.49,30C101.75,48.89,86.78,59,86.78,59h-.23s-15-10.13-25.82-22.79C50.31,24.07,46.52,7.48,46.24,6.18h0L50.73,4.1A44.42,44.42,0,0,0,56.83.43s.33,1.71,1.1,4.46c.35,1.26.79,2.73,1.33,4.35C62.88,20.07,71,37.79,86.66,44h.12C101.53,38.15,109.59,22.1,113.5,11.2Z"/><path class="cls-1" d="M116.46.43l.13.11c-.1.53-.63,3-1.72,6.54h0s-8.56,4.06-27.78,4.06c-18.32,0-28.25-5.71-29.14-6.25-.77-2.75-1.1-4.46-1.1-4.46s10.6,7.14,29.68,7h.27C105.86,7.57,116.46.43,116.46.43Z"/><path class="cls-1" d="M114.85,7.08h0c-.38,1.25-.84,2.64-1.37,4.12-.52.22-8.74,3.62-26.46,3.62-17.37,0-26.84-5.05-27.78-5.58-.54-1.62-1-3.09-1.33-4.35.89.54,10.82,6.25,29.14,6.25C106.29,11.14,114.85,7.08,114.85,7.08Z"/><path class="cls-1" d="M113.5,11.2c-3.91,10.9-12,27-26.72,32.84h-.12c-15.66-6.25-23.78-24-27.4-34.8.94.53,10.41,5.58,27.78,5.58C104.76,14.82,113,11.42,113.5,11.2Z"/><path class="cls-1" d="M19.19,18.51s12.72,19.11,10.6,37.54A44.13,44.13,0,0,1,14.15,84.14c-.75.61-1.4,1.1-1.85,1.43l-10.7,7-.17-2.87L.37,79.39S12.3,73,16.8,59.71s-8-35.48-8-35.48-.42-.91,10.26-5.84Z"/><path class="cls-2" d="M46.24,6.18C41.36,8.43,33,12.26,23.43,16.45c-1.61.71-3,1.36-4.32,1.94C8.43,23.32,8.85,24.23,8.85,24.23s12.46,22.2,8,35.48S.37,79.39.37,79.39l1.06,10.3.17,2.87,3.54,59.37,2.65,27.46,1.32,16.48H164.18l1.32-16.48,2.65-27.46,3.54-59.36.17-2.88,1.06-10.3S161,73,156.49,59.71s7.95-35.48,7.95-35.48.41-.89-9.9-5.67c-1.36-.63-2.91-1.33-4.68-2.11-9.53-4.18-17.89-8-22.77-10.26L122.56,4.1a48.46,48.46,0,0,1-6-3.56l-.13-.11s-10.6,7.14-29.68,7h-.27c-19.08.14-29.68-7-29.68-7a44.42,44.42,0,0,1-6.1,3.67L46.24,6.18"/><path class="cls-2" d="M46.22,6.1l0,.08h0c.28,1.3,4.07,17.89,14.49,30.05C71.58,48.89,86.55,59,86.55,59h.23s15-10.13,25.82-22.79C123,24.1,126.78,7.58,127.09,6.19a.62.62,0,0,0,0-.09"/><path class="cls-2" d="M116.62.43l0,.11c-.1.53-.63,3-1.72,6.54-.38,1.25-.84,2.64-1.37,4.12-3.91,10.9-12,27-26.72,32.84h-.12c-15.66-6.25-23.78-24-27.4-34.8-.54-1.62-1-3.09-1.33-4.35-.77-2.75-1.1-4.46-1.1-4.46"/><polyline class="cls-2" points="7.52 179.39 7.79 179.39 165.5 179.39"/><path class="cls-2" d="M19.19,18.51s12.72,19.11,10.6,37.54A44.13,44.13,0,0,1,14.15,84.14c-.75.61-1.4,1.1-1.85,1.43l-10.7,7"/><path class="cls-2" d="M154,19s-12.72,19-10.6,37.3A42.26,42.26,0,0,0,159,84.19l12.55,8.37"/><path class="cls-2" d="M57.86,4.85l.07,0c.89.54,10.82,6.25,29.14,6.25,19.22,0,27.78-4.06,27.78-4.06"/><path class="cls-2" d="M59.19,9.2l.07,0c.94.53,10.41,5.58,27.78,5.58,17.72,0,25.94-3.4,26.46-3.62h0"/></g></g></g></svg>