<?xml version="1.0" encoding="UTF-8"?>
<svg id="Layer_2" data-name="Layer 2" xmlns="http://www.w3.org/2000/svg" viewBox="0 0 286.29 130.76">
  <defs>
    <style>
      .cls-1, .cls-2 {
        stroke-width: 0px;
      }

      .cls-2 {
        fill: #b3b3b3;
      }
    </style>
  </defs>
  <g id="Layer_1-2" data-name="Layer 1">
    <g>
      <path class="cls-2" d="m285.65,120.67c-3.57.76-9.42,3.56-14.89,4.07-5.46.51-3.68,2.55-7.88,4.32-4.2,1.78-35.99,0-35.99,0,0,0-2.56-47.41-2.72-50.03-.08-1.52-1.32-1.7-1.32-1.7,0,0-1.29,0-1.42,1.7-.21,2.62-2.72,50.03-2.72,50.03,0,0-31.8,1.78-35.99,0-4.2-1.78-2.42-3.81-7.88-4.32-5.47-.51-11.33-3.31-14.88-4.07,0,0,8.13-51.52,12.84-67.16,4.71-15.64,14.12-38.03,20.36-42.23l-.05-.33V1.46c11.11-1.27,29.69-.96,29.69-.96,0,0,18.58-.31,29.69.96v9.48l-.05.33c6.25,4.21,15.65,26.6,20.36,42.23,4.71,15.65,12.85,67.16,12.85,67.16h0Z"/>
      <path class="cls-1" d="m194.07,130.76c-5.51,0-10.18-.21-11.67-.84-1.9-.8-2.69-1.7-3.34-2.41-.83-.92-1.43-1.59-4.34-1.86-3.55-.33-7.15-1.57-10.34-2.66-1.8-.62-3.36-1.16-4.63-1.43-.36-.08-.6-.42-.54-.78.08-.52,8.2-51.74,12.86-67.25,4.38-14.52,13.95-38.1,20.64-42.61.31-.21.74-.13.95.19.21.31.13.74-.19.95-5.62,3.79-14.91,24.7-20.08,41.87-4.36,14.49-11.78,60.5-12.73,66.44,1.2.31,2.59.78,4.16,1.32,3.1,1.07,6.63,2.27,10,2.59,3.46.32,4.32,1.29,5.25,2.31.61.68,1.24,1.38,2.85,2.07,3.25,1.38,25.84.48,35.08-.02.3-5.81,2.48-46.96,2.68-49.44.14-1.84,1.44-2.32,2.1-2.32.38,0,.69.31.69.69s-.3.68-.67.69c-.17,0-.68.11-.75,1.06-.21,2.58-2.69,49.54-2.72,50.01-.01.35-.3.63-.64.65-.86.05-14.25.79-24.63.79h0Z"/>
      <path class="cls-1" d="m251.43,130.76c-10.38,0-23.77-.74-24.63-.79-.35-.02-.63-.3-.64-.65-.02-.47-2.56-47.43-2.72-50.03-.05-.94-.7-1.05-.74-1.05-.37-.05-.63-.4-.58-.78.06-.38.41-.64.79-.58.62.09,1.82.69,1.92,2.33.13,2.43,2.37,43.84,2.67,49.42,9.24.5,31.83,1.4,35.08.02,1.62-.69,2.24-1.39,2.85-2.07.92-1.02,1.79-1.99,5.23-2.31,3.39-.31,6.92-1.52,10.01-2.59,1.57-.54,2.96-1.01,4.16-1.32-.95-5.94-8.37-51.95-12.73-66.44-5.16-17.16-14.46-38.08-20.08-41.87-.32-.21-.41-.64-.19-.95.21-.31.64-.4.95-.19,6.69,4.51,16.27,28.09,20.64,42.61,4.66,15.51,12.78,66.73,12.86,67.25.06.36-.18.7-.54.78-1.26.27-2.83.81-4.63,1.43-3.18,1.09-6.78,2.33-10.34,2.66-2.91.27-3.5.94-4.34,1.86-.64.72-1.44,1.61-3.34,2.41-1.49.63-6.16.84-11.67.84h0Z"/>
      <path class="cls-1" d="m193.07,11.38l-.02-.67c.18,0,17.13-.55,29.71-.55v.66c-12.57,0-29.52.55-29.69.55h0Z"/>
      <path class="cls-1" d="m222.76,77.44c-.19,0-.33-.15-.33-.33V10.49c0-.18.14-.33.33-.33.18,0,.32.15.32.33v66.62c0,.18-.14.33-.32.33h0Z"/>
      <path class="cls-1" d="m161.11,117.99h-.02c-.23-.06-.44-.12-.64-.16l-.1-.14.14-.09c.22.05.43.1.66.16l.08.15-.12.09h0Zm1.29.37h-.04c-.21-.07-.43-.14-.64-.2l-.07-.15.14-.08c.21.06.42.13.64.19l.07.15-.11.08h0Zm1.26.41h-.04c-.21-.08-.43-.15-.63-.22l-.08-.15.16-.08c.21.07.42.14.63.21l.08.15-.12.08h0Zm1.26.43h-.04s-.63-.22-.63-.22l-.07-.15.14-.08.63.22.08.15-.12.08h0Zm1.26.43h-.04s-.63-.22-.63-.22l-.08-.15.16-.08.63.22.08.15-.12.08h0Zm1.26.42h-.04s-.63-.21-.63-.21l-.07-.15.14-.08.63.21.08.15-.12.08h0Zm1.28.4h-.04c-.21-.07-.43-.14-.64-.21l-.07-.15.15-.08c.2.07.42.13.63.2l.08.15-.12.08h0Zm1.28.38h-.02c-.21-.07-.43-.13-.64-.19l-.08-.15.14-.08c.21.06.43.12.64.18l.08.15-.12.09h0Zm1.3.34h-.04c-.21-.06-.43-.11-.64-.17l-.08-.15.14-.09c.22.06.43.11.64.16l.08.15-.11.09h0Zm1.3.3h-.02c-.23-.05-.44-.1-.66-.14l-.1-.14.14-.09c.21.05.43.1.66.14l.1.14-.12.1h0Zm1.31.24h-.02c-.21-.03-.44-.07-.66-.11l-.1-.14.13-.1c.21.04.44.08.66.11l.11.14-.12.1h0Zm1.32.17h-.01c-.23-.02-.45-.05-.67-.07l-.11-.13.13-.1c.23.03.44.05.66.07l.12.13-.12.11h0Zm1.31.17h-.02c-.2-.04-.42-.07-.64-.1l-.11-.13.13-.1c.24.03.46.06.67.1l.1.14-.12.1h0Zm1.29.33h-.04c-.19-.08-.41-.14-.63-.19l-.08-.15.14-.09c.23.06.45.12.66.19l.07.15-.12.08h0Zm1.18.6l-.07-.02c-.17-.13-.35-.23-.55-.33l-.05-.16.15-.05c.21.1.41.22.58.36l.02.17-.1.05h0Zm.97.91l-.1-.04c-.13-.16-.29-.32-.44-.48v-.17s.17,0,.17,0c.17.16.32.33.45.49v.17l-.08.03h0Zm.93.95l-.08-.03c-.17-.14-.32-.3-.49-.47v-.17s.18,0,.18,0c.16.17.31.32.47.46v.17s-.07.04-.07.04h0Zm1.07.78l-.06-.02c-.2-.12-.39-.24-.57-.37l-.02-.17.17-.03c.18.13.36.24.55.36l.05.16-.11.06h0Zm1.18.59h-.04s-.02-.02-.02-.02c-.21-.09-.41-.18-.6-.27l-.05-.16.17-.05c.17.09.36.18.56.26l.08.16-.11.08h0Zm35.3.03l-.12-.11.12-.13.67-.04.13.11-.12.13-.67.04h-.01Zm-1.34.07l-.12-.11.12-.13.67-.03.12.11-.11.13-.67.03h-.01Zm-1.34.07l-.12-.11.12-.13.67-.03.12.11-.11.13-.67.03h-.01Zm-1.32.06l-.13-.12.12-.13.67-.03.13.12-.12.13-.67.03h0Zm-1.35.06l-.12-.11.12-.13.67-.03.13.12-.12.13-.67.03h-.01Zm-28.66.04h-.01c-.25-.04-.48-.08-.67-.13l-.1-.14.15-.09c.18.04.41.09.64.13l.1.14-.12.1h0Zm27.34.02l-.12-.11.11-.13.67-.03.13.12-.12.13-.67.03h0Zm-1.34.06l-.12-.12.11-.13.67-.03.13.12-.12.13-.67.03h0Zm-1.34.05l-.12-.12.12-.13.67-.03.12.12-.12.13-.67.03h0Zm-23.34.04h-.01c-.23-.02-.45-.05-.67-.08l-.1-.13.13-.1c.2.03.43.05.66.07l.11.13-.12.11h0Zm22.01,0l-.12-.12.12-.13.67-.02.12.12-.12.13-.67.02h0Zm-1.34.05l-.12-.12.12-.13.67-.02h0l.12.12-.12.13-.66.02h-.01Zm-1.33.04l-.12-.12.12-.12.67-.02.12.12-.11.13-.67.02h-.01Zm-18,.01h-.01c-.23-.02-.45-.03-.67-.05l-.11-.13.13-.11c.21.02.43.03.66.05l.12.13-.12.11h0Zm16.67.03l-.12-.12.12-.12.67-.02.12.12-.11.13-.67.02h-.01Zm-1.32.04l-.12-.12.11-.12.67-.02.12.12-.11.12-.67.02h0Zm-14.02,0h0c-.23-.01-.45-.02-.67-.03l-.12-.13.13-.11c.21.01.44.02.67.03l.11.13-.12.11h0Zm12.69.03l-.12-.12.11-.12.67-.02.13.12-.12.12-.67.02h0Zm-11.35.03h0c-.23,0-.45-.01-.67-.02l-.12-.12.13-.12c.21,0,.44.02.66.02l.12.12-.12.12h0Zm10.02,0l-.13-.12.12-.12h.67s.01-.01.01-.01l.12.12-.12.12h-.67Zm-1.34.02l-.13-.12.12-.12h.67s.01-.01.01-.01l.12.12-.12.12h-.67Zm-7.34,0h0c-.23,0-.45,0-.67-.01l-.12-.12.12-.12c.23,0,.44,0,.67.01l.12.12-.12.12h0Zm6.01.01l-.12-.12.12-.12h.66s.01.11.01.11v.12s-.67,0-.67,0h0Zm-4.67,0h-.67s-.12-.13-.12-.13l.12-.12h.67s.12.13.12.13l-.12.12h0Zm3.34,0l-.12-.12.12-.12h.66s.01.12.01.12v.12s-.67,0-.67,0h0Zm-2,0h-.67s-.12-.12-.12-.12l.12-.12h.67s.12.12.12.12l-.12.12h0Zm.67,0l-.12-.12.12-.12h.67s.12.12.12.12l-.12.12h-.67Z"/>
      <path class="cls-1" d="m179.22,125.99l-.66-.13s.68-3.67,4.82-36.83c4.16-33.28,17.7-77.65,17.85-78.09l.63.2c-.14.44-13.66,44.75-17.82,77.98-4.15,33.27-4.79,36.74-4.82,36.87h0Z"/>
      <path class="cls-1" d="m252.44,11.38c-.17,0-17.12-.55-29.68-.55v-.66c12.57,0,29.52.55,29.7.55l-.02.67h0Z"/>
      <path class="cls-1" d="m252.45,11.86c-.38,0-.69-.31-.69-.69V2.31c-11-1.18-28.81-.91-29-.9-.2,0-18-.27-29.01.9v8.86c0,.38-.31.69-.69.69s-.68-.31-.68-.69V1.69c0-.35.26-.65.61-.68C204.02-.26,222.58.03,222.76.03c.17,0,18.73-.29,29.76.98.36.04.61.34.61.68v9.48c0,.38-.3.69-.68.69h0Z"/>
      <path class="cls-1" d="m284.4,117.99l-.12-.09.08-.15c.23-.06.44-.11.66-.16l.14.09-.1.14c-.2.05-.42.1-.64.16h-.02Zm-1.29.37l-.11-.08.07-.15c.23-.07.44-.13.64-.19l.15.08-.08.15c-.21.06-.42.13-.64.19h-.04Zm-1.26.41l-.12-.08.08-.15c.21-.07.42-.14.63-.21l.16.08-.08.15c-.2.07-.42.14-.63.21h-.04Zm-1.26.43l-.12-.08.08-.15.63-.22.14.08-.07.15-.63.22h-.04Zm-1.26.43l-.12-.08.08-.15.63-.22.14.08-.07.15-.63.22h-.04Zm-1.26.42l-.12-.08.08-.15.63-.21.15.08-.08.15-.63.21h-.04Zm-1.28.4l-.12-.08.08-.15c.21-.06.43-.13.63-.2l.16.08-.07.15c-.21.07-.43.13-.64.2h-.04Zm-1.28.38l-.12-.09.08-.15c.21-.06.43-.12.64-.18l.14.08-.08.15c-.2.06-.42.13-.64.19h-.02Zm-1.29.34l-.12-.09.08-.15c.21-.05.43-.11.64-.16l.15.09-.1.15c-.21.06-.43.11-.64.17h-.02Zm-1.31.3l-.12-.1.1-.14c.23-.04.44-.09.66-.14l.14.09-.1.14c-.21.05-.43.1-.64.14h-.04Zm-1.31.24l-.11-.1.1-.14c.21-.03.44-.07.66-.11l.14.1-.11.14c-.21.04-.43.08-.66.11h-.02Zm-1.32.17l-.12-.11.12-.13c.21-.02.43-.04.66-.07l.13.1-.11.13c-.21.03-.44.05-.67.07h-.01Zm-1.31.17l-.12-.1.1-.14c.2-.04.43-.07.67-.1l.13.1-.11.13c-.23.03-.44.06-.64.1h-.02Zm-1.29.33l-.12-.08.07-.15c.2-.07.43-.14.66-.19l.14.09-.08.15c-.23.05-.44.12-.63.18h-.04Zm-1.18.6l-.1-.05.02-.17c.18-.13.37-.25.58-.36l.16.05-.05.16c-.2.1-.38.21-.55.33l-.07.02h0Zm-.97.91l-.08-.03v-.17c.14-.16.29-.33.45-.49h.18s-.01.17-.01.17c-.16.16-.31.32-.44.48l-.1.04h0Zm-.93.95l-.08-.04v-.17c.17-.14.32-.29.48-.46h.17s.01.17.01.17c-.17.17-.32.33-.49.47l-.08.03h0Zm-1.07.78l-.11-.06.05-.16c.19-.11.37-.23.55-.36l.17.03-.02.17c-.18.13-.37.25-.57.37l-.06.02h0Zm-1.19.59l-.11-.08.06-.16.05.11v-.12c.19-.09.38-.17.56-.26l.15.05-.05.16c-.19.09-.38.18-.58.27h-.04s-.05.02-.05.02h0Zm-35.29.03h-.01l-.67-.04-.12-.13.13-.11.67.04.12.13-.12.11h0Zm1.34.07h-.01l-.67-.03-.11-.13.12-.11.67.03.12.13-.12.11h0Zm1.33.07h-.01l-.67-.03-.11-.13.12-.11.67.03.12.13-.12.11h0Zm1.34.06h-.01l-.67-.03-.11-.13.12-.12.67.03.12.13-.12.12h0Zm1.32.06h0l-.67-.03-.12-.13.13-.12.67.03.12.13-.13.11h0Zm28.67.04l-.12-.1.1-.14c.25-.04.46-.08.64-.13l.15.09-.1.14c-.19.05-.42.09-.66.13h-.02Zm-27.34.02h0l-.67-.03-.12-.13.13-.12.67.03.11.13-.12.11h0Zm1.34.06h0l-.67-.03-.12-.13.13-.12.67.03.11.13-.12.12h0Zm1.34.05h0l-.67-.03-.12-.13.13-.12.66.03.12.13-.12.12h0Zm23.34.04l-.12-.11.11-.13c.23-.02.45-.05.66-.07l.14.1-.11.13c-.21.03-.44.05-.67.07h-.01Zm-22.01,0h0l-.67-.02-.12-.13.12-.12h0l.67.02.12.13-.12.12h0Zm1.34.05h0l-.67-.02-.12-.13.12-.12.67.02.12.13-.12.12h0Zm1.34.04h-.01l-.67-.02-.11-.13.12-.12.67.02.12.12-.12.12h0Zm18,.01l-.12-.11.12-.13c.23-.02.44-.03.66-.05l.13.11-.11.13c-.22.02-.44.03-.67.05h-.01Zm-16.67.03h-.01l-.67-.02-.11-.13.12-.12.67.02.12.12-.12.12h0Zm1.32.04h0l-.67-.02-.12-.12.13-.12.67.02.12.12-.13.12h0Zm14.02,0l-.12-.11.11-.13c.23-.01.45-.02.67-.03l.13.11-.12.13c-.21.01-.44.02-.67.03h0Zm-12.69.03h0l-.67-.02-.12-.12.13-.12.67.02.11.12-.12.12h0Zm11.35.03l-.12-.12.12-.12c.23,0,.44-.01.66-.02l.13.12-.12.12c-.21,0-.44.02-.67.02h0Zm-10,0h-.68s-.12-.14-.12-.14l.12-.12h.68s.12.14.12.14l-.12.12h0Zm1.32.02h-.67s-.12-.13-.12-.13l.12-.12h.68s.12.13.12.13l-.13.12h0Zm7.34,0l-.12-.12.12-.12c.23,0,.44,0,.67-.01l.12.12-.12.12c-.21,0-.44,0-.67.01h0Zm-6.01.01h-.66s-.12-.13-.12-.13l.11-.12h.68s.11.13.11.13l-.12.12h0Zm4.67,0l-.12-.12.12-.12h.67s.12.11.12.11l-.12.12h-.67Zm-3.34,0h-.66s-.12-.13-.12-.13l.11-.12h.67s.12.13.12.13l-.12.12h0Zm2,0l-.12-.12.12-.12h.67s.12.12.12.12l-.12.12h-.67Zm-.67,0h-.67s-.12-.12-.12-.12l.12-.12h.67s.12.12.12.12l-.12.12h0Z"/>
      <path class="cls-1" d="m266.29,125.99c-.02-.13-.67-3.6-4.82-36.87-4.16-33.23-17.68-77.54-17.82-77.98l.63-.2c.14.44,13.69,44.81,17.85,78.09,4.15,33.16,4.82,36.8,4.82,36.83l-.66.13h0Z"/>
      <path class="cls-2" d="m126.34,120.21c-3.55.76-9.42,3.56-14.88,4.07-5.47.51-3.68,2.55-7.88,4.32-4.2,1.78-36.01,0-36.01,0,0,0-2.55-47.41-2.71-50.03-.1-1.51-1.34-1.7-1.34-1.7,0,0-1.29,0-1.42,1.7-.21,2.62-2.71,50.03-2.71,50.03,0,0-31.8,1.78-35.99,0-4.21-1.78-2.42-3.81-7.89-4.32-5.47-.51-11.31-3.31-14.88-4.07,0,0,8.13-51.52,12.84-67.16,4.71-15.64,14.13-38.03,20.36-42.23l-.05-.33V1C44.91-.28,63.5.03,63.5.03c0,0,18.56-.31,29.68.96v9.48l-.05.33c6.26,4.21,15.67,26.6,20.36,42.23,4.71,15.65,12.85,67.16,12.85,67.16h0Z"/>
      <path class="cls-2" d="m92.58,2.16s-16.74,2.34-29.43,2.37h-.27c-12.69-.03-29.41-2.37-29.41-2.37,10.31-1.85,27.09-1.58,29.41-1.52h.27c2.32-.06,19.1-.33,29.43,1.52h0Z"/>
      <path class="cls-1" d="m64.06,4.86c-14.47,0-30.06-2.66-30.21-2.68l.11-.66c.15.03,15.69,2.67,30.11,2.67v.66h0Z"/>
      <path class="cls-1" d="m64.06,14.11c-14.47,0-30.06-2.66-30.21-2.68l.11-.65c.15.03,15.69,2.67,30.11,2.67v.67h0Z"/>
      <path class="cls-1" d="m63.58,77.5c-.18,0-.32-.15-.32-.33V13.78c0-.18.14-.33.32-.33.19,0,.33.15.33.33v63.39c0,.18-.14.33-.33.33h0Z"/>
      <path class="cls-1" d="m33.89,11.91c-.38,0-.69-.31-.69-.69V1.74c0-.35.27-.64.62-.68C44.85-.2,63.41.08,63.59.08c.38,0,.69.32.68.7,0,.38-.32.71-.69.68-.19,0-17.99-.27-29,.9v8.86c0,.38-.31.69-.69.69h0Z"/>
      <path class="cls-1" d="m34.86,130.36c-5.51,0-10.18-.21-11.67-.84-1.9-.8-2.69-1.7-3.34-2.41-.83-.92-1.43-1.59-4.34-1.86-3.55-.33-7.15-1.57-10.34-2.66-1.8-.62-3.36-1.15-4.63-1.42-.36-.08-.6-.42-.54-.78.08-.52,8.2-51.74,12.86-67.25,4.38-14.52,13.95-38.1,20.64-42.61.31-.21.74-.13.95.19s.13.74-.18.96c-5.63,3.79-14.93,24.71-20.09,41.87-4.36,14.49-11.78,60.5-12.73,66.44,1.2.31,2.59.78,4.16,1.32,3.1,1.07,6.63,2.27,10.02,2.59,3.45.32,4.32,1.29,5.23,2.31.61.68,1.24,1.38,2.85,2.07,3.25,1.38,25.84.48,35.08-.02.31-5.81,2.48-46.96,2.68-49.44.14-1.84,1.44-2.32,2.1-2.32.38,0,.69.31.69.69s-.3.68-.67.69c-.17,0-.68.11-.75,1.06-.21,2.58-2.68,49.54-2.72,50.01-.01.35-.3.63-.64.65-.86.05-14.25.79-24.63.79h0Z"/>
      <path class="cls-1" d="m1.94,118.05h-.02c-.23-.06-.44-.11-.64-.16l-.1-.14.14-.09c.22.05.43.1.66.16l.08.15-.12.09h0Zm1.29.37h-.04c-.23-.07-.43-.14-.64-.2l-.08-.15.15-.08c.2.06.42.13.64.19l.07.15-.11.08h0Zm1.26.41h-.04c-.21-.08-.43-.15-.63-.22l-.08-.15.16-.08c.21.07.42.14.63.21l.08.15-.12.08h0Zm1.26.43h-.04s-.63-.22-.63-.22l-.07-.15.14-.08.63.22.08.15-.12.08h0Zm1.26.43h-.04s-.63-.22-.63-.22l-.08-.15.16-.07.63.21.08.15-.12.08h0Zm1.26.42h-.04s-.63-.22-.63-.22l-.08-.15.15-.08.63.21.08.15-.12.08h0Zm1.28.4h-.04c-.21-.07-.43-.14-.64-.2l-.07-.15.14-.08c.21.07.43.13.64.2l.07.15-.11.08h0Zm1.28.38h-.04c-.22-.07-.43-.13-.63-.19l-.08-.15.14-.08c.21.06.43.13.64.18l.08.15-.12.09h0Zm1.29.34h-.02c-.21-.06-.43-.11-.64-.17l-.1-.15.15-.08c.22.06.43.11.64.16l.08.15-.12.09h0Zm1.31.29h-.02c-.23-.05-.44-.1-.66-.14l-.1-.14.14-.09c.21.05.43.1.66.14l.08.14-.11.1h0Zm1.3.24h-.01c-.23-.03-.44-.07-.66-.11l-.11-.14.14-.1c.21.04.44.08.66.11l.1.14-.12.1h0Zm1.32.17h0c-.23-.02-.45-.05-.67-.07l-.11-.13.13-.1c.23.03.44.05.66.07l.12.13-.13.11h0Zm1.32.17h-.02c-.2-.04-.42-.07-.64-.1l-.11-.13.13-.1c.24.03.46.06.67.1l.1.14-.12.1h0Zm1.29.33h-.04c-.2-.08-.41-.14-.63-.19l-.08-.15.14-.09c.23.06.44.12.66.19l.07.15-.12.08h0Zm1.18.6l-.07-.02c-.17-.13-.35-.23-.55-.33l-.05-.16.15-.05c.21.1.41.22.58.35l.02.17-.1.05h0Zm.97.91l-.1-.04c-.13-.16-.29-.32-.44-.48v-.17s.17,0,.17,0c.17.16.31.33.45.49v.17l-.08.03h0Zm.93.95l-.08-.03c-.17-.14-.32-.3-.49-.47v-.17s.18,0,.18,0c.16.17.31.32.47.46v.17s-.07.04-.07.04h0Zm1.07.78l-.06-.02c-.2-.12-.39-.24-.57-.37l-.02-.17.17-.03c.18.13.36.25.55.36l.05.16-.11.06h0Zm1.18.59h-.04s-.04-.02-.04-.02c-.2-.09-.39-.18-.58-.27l-.05-.16.16-.05c.18.09.37.18.57.26l.08.16-.11.08h0Zm35.3.03l-.12-.11.12-.13.67-.04.13.11-.12.13-.67.04h-.01Zm-1.34.07l-.12-.11.12-.13.67-.03.12.11-.11.13-.67.03h-.01Zm-1.34.07l-.12-.11.12-.13.67-.03.12.12-.11.13-.67.03h-.01Zm-1.34.06l-.12-.12.12-.13.67-.03.12.12-.11.13-.67.03h-.01Zm-1.33.06l-.12-.11.12-.13.67-.03.13.12-.12.13-.67.03h-.01Zm-28.66.04h-.02c-.24-.04-.47-.09-.66-.13l-.1-.14.14-.09c.19.04.42.09.66.13l.1.14-.12.1h0Zm27.34.02l-.12-.11.11-.13.67-.03.13.12-.12.13-.67.03h0Zm-1.34.06l-.12-.12.11-.13.67-.03.13.12-.12.13-.67.03h0Zm-1.34.05l-.12-.12.11-.13.67-.03.13.12-.12.13-.67.03h0Zm-23.34.04h-.01c-.23-.02-.45-.05-.67-.08l-.11-.13.14-.1c.2.03.43.05.66.07l.11.13-.12.11h0Zm22.01,0l-.12-.12.12-.13.67-.03.12.12-.12.13-.67.02h0Zm-1.34.05l-.12-.12.12-.13.67-.02h0l.12.12-.12.12-.67.02h0Zm-1.33.04l-.12-.12.12-.13.67-.02.12.12-.12.13-.67.02h0Zm-18,.01h-.01c-.23-.02-.45-.03-.67-.05l-.11-.13.13-.11c.21.02.43.03.66.05l.12.13-.12.11h0Zm16.67.03l-.12-.12.12-.12.67-.02.12.12-.11.12-.67.02h-.01Zm-1.32.04l-.13-.12.12-.12.67-.02.12.12-.11.12-.67.02h0Zm-14.02,0h0c-.23-.01-.45-.02-.67-.03l-.12-.13.13-.11c.21.01.44.02.67.03l.11.13-.12.12h0Zm12.69.02l-.12-.12.11-.12.67-.02.13.12-.12.12-.67.02h0Zm-11.35.03h0c-.23,0-.45-.01-.67-.02l-.12-.12.13-.12c.21,0,.44.02.66.02l.12.12-.12.12h0Zm10,0l-.12-.12.12-.12h.67s.01-.01.01-.01l.12.12-.12.12h-.67s-.01.01-.01.01h0Zm-1.32.02l-.13-.12.12-.12h.67s.13.11.13.11l-.12.12h-.67Zm-7.34,0h0c-.23,0-.45,0-.67-.01l-.12-.12.12-.12c.23,0,.44,0,.67.01l.12.12-.12.12h0Zm6.01.01l-.13-.12.13-.12h.66s.01.11.01.11v.12s-.67,0-.67,0h0Zm-4.67,0h-.67s-.12-.13-.12-.13l.12-.12h.67s.12.13.12.13l-.12.12h0Zm3.34,0l-.12-.12.12-.12h.66s.01.12.01.12v.12s-.67,0-.67,0h0Zm-2,0h-.67s-.12-.12-.12-.12l.12-.12h.67s.12.12.12.12l-.12.12h0Zm.67,0l-.12-.12.12-.12h.67s.12.12.12.12l-.12.12h-.67Z"/>
      <path class="cls-1" d="m34.99,11.99l-.07-.03-.02-.17c.27-.34.42-.53.42-.53l.18-.02v.17s-.13.18-.41.52l-.1.05h0Zm-.81,1.06l-.07-.03-.02-.17c.14-.19.29-.37.41-.53l.17-.02.02.17c-.12.16-.26.34-.41.53l-.1.05h0Zm-.8,1.07l-.07-.02-.02-.17c.14-.19.27-.37.39-.54l.17-.03.04.17c-.13.17-.26.35-.39.54l-.11.05h0Zm-.78,1.08l-.07-.02-.02-.17c.13-.19.26-.37.38-.54l.17-.03.04.17c-.13.18-.26.36-.39.54l-.1.05h0Zm-.76,1.09l-.07-.02-.02-.17c.12-.19.25-.37.37-.55l.18-.03.02.17c-.12.18-.25.36-.38.55l-.1.05h0Zm-.75,1.11l-.07-.02-.02-.17c.12-.19.25-.37.37-.55l.17-.03.04.17c-.13.18-.25.37-.38.55l-.09.05h0Zm-.74,1.11l-.06-.02-.04-.17c.12-.19.25-.38.37-.56l.17-.03.02.17c-.12.18-.24.37-.36.56l-.11.05h0Zm-.72,1.12l-.06-.02-.04-.17c.12-.19.24-.38.36-.56l.17-.04.04.17c-.12.18-.24.37-.36.56l-.11.06h0Zm-.7,1.14l-.06-.02-.05-.17c.12-.19.24-.38.36-.57l.17-.04.04.17c-.12.19-.23.38-.35.57l-.11.06h0Zm-.68,1.14l-.07-.02-.04-.16c.11-.19.23-.39.33-.57l.17-.04.05.17c-.12.19-.23.38-.35.57l-.1.06h0Zm-.68,1.15l-.06-.02-.04-.16c.11-.19.21-.39.33-.58l.15-.04.05.16c-.11.19-.23.38-.33.58l-.11.06h0Zm-.64,1.17l-.06-.02-.05-.16c.11-.2.21-.39.32-.59l.17-.05.05.16c-.11.19-.21.39-.32.58l-.11.06h0Zm-.63,1.17h-.06s-.05-.18-.05-.18c.11-.2.2-.39.31-.59l.17-.05.05.16c-.11.2-.2.39-.31.59l-.11.06h0Zm-.61,1.19h-.06s-.05-.18-.05-.18c.1-.2.2-.4.3-.59l.17-.05.05.16c-.1.2-.2.39-.3.59l-.11.07h0Zm-.6,1.19h-.05s-.06-.17-.06-.17c.1-.2.2-.4.3-.6l.16-.05.06.16c-.09.2-.19.4-.29.6l-.12.07h0Zm-.56,1.21h-.05s-.06-.17-.06-.17c.1-.2.18-.41.27-.61l.17-.06.06.16c-.09.2-.19.4-.29.61l-.11.07h0Zm-.54,1.22h-.05s-.06-.17-.06-.17c.08-.2.18-.41.26-.61l.16-.06.07.16c-.1.2-.18.41-.27.61l-.11.07h0Zm-.52,1.22h-.05s-.06-.17-.06-.17c.08-.2.17-.4.26-.61l.15-.06.06.16c-.08.21-.17.41-.26.61l-.11.07h0Zm-.54,1.22h-.06s-.06-.17-.06-.17c.1-.2.18-.4.27-.61l.17-.06.06.16c-.1.21-.19.41-.27.61l-.11.07h0Zm-.56,1.21h-.06s-.05-.17-.05-.17c.08-.2.18-.4.27-.6l.17-.06.06.16c-.11.21-.19.41-.29.6l-.11.07h0Zm-.58,1.2h-.05s-.06-.17-.06-.17c.1-.19.19-.39.3-.6l.16-.06.06.16c-.09.2-.2.41-.3.6l-.11.07h0Zm-.6,1.19h-.06s-.05-.18-.05-.18c.1-.19.2-.39.3-.59l.17-.05.05.16c-.1.2-.2.4-.3.59l-.11.07h0Zm-.63,1.18l-.06-.02-.05-.16c.11-.19.22-.38.32-.58l.17-.05.05.16c-.11.2-.21.4-.32.59l-.11.06h0Zm-.66,1.16l-.07-.02-.04-.17c.11-.18.21-.37.33-.57l.17-.05.05.16c-.12.2-.24.39-.35.58l-.1.06h0Zm-.72,1.13l-.06-.02-.04-.17c.11-.17.23-.36.36-.56l.17-.04.04.17c-.13.2-.25.39-.36.56l-.11.05h0Zm-.77,1.08l-.07-.03-.02-.17c.12-.15.25-.33.39-.53l.17-.03.04.17c-.15.2-.29.38-.41.54l-.1.05h0Zm-.91.97l-.1-.05.02-.17c.06-.05.21-.18.47-.44h.17s0,.16,0,.16c-.25.28-.42.41-.49.47l-.07.02h0Z"/>
      <path class="cls-1" d="m20.05,126.05l-.66-.13s.68-3.67,4.82-36.83C28.37,55.81,41.92,12.77,42.06,12.34l.63.2c-.14.43-13.66,43.41-17.82,76.64-4.15,33.27-4.79,36.74-4.82,36.87h0Z"/>
      <path class="cls-1" d="m53.3,13.44c-.45,1.63-.94,3.26-1.37,4.9-.43,1.64-.84,3.3-1.22,4.95-.78,3.31-1.47,6.64-2.11,9.98-1.29,6.68-2.34,13.41-3.21,20.16.76-6.76,1.7-13.51,2.87-20.22.6-3.36,1.24-6.7,1.96-10.03.36-1.67.74-3.33,1.14-4.98.39-1.66.86-3.3,1.3-4.96l.63.2h0Z"/>
      <path class="cls-1" d="m51.66,19.57c-.18,6.9-.41,13.79-.68,20.68-.13,3.45-.3,6.89-.48,10.34-.19,3.44-.38,6.89-.74,10.32.3-3.43.44-6.88.57-10.33.13-3.45.23-6.89.31-10.34.17-6.89.29-13.79.36-20.68h.66Z"/>
      <path class="cls-1" d="m63.02,4.86v-.66c14.43,0,29.95-2.65,30.1-2.67l.12.66c-.15.03-15.74,2.68-30.22,2.68h0Z"/>
      <path class="cls-1" d="m63.02,14.11v-.67c14.43,0,29.95-2.65,30.1-2.67l.12.65c-.15.03-15.74,2.68-30.22,2.68h0Z"/>
      <path class="cls-1" d="m93.18,11.91c-.38,0-.69-.31-.69-.69V2.36c-11-1.17-28.81-.9-28.98-.9-.38,0-.7-.3-.7-.68s.3-.69.68-.7c.18,0,18.74-.28,29.77.98.36.04.62.33.62.68v9.48c0,.38-.31.69-.69.69h0Z"/>
      <path class="cls-1" d="m92.22,130.36c-10.38,0-23.77-.74-24.63-.79-.35-.02-.63-.3-.64-.65-.02-.47-2.56-47.43-2.72-50.03-.05-.94-.7-1.05-.74-1.05-.37-.05-.63-.4-.58-.78.06-.38.41-.64.79-.58.62.09,1.82.69,1.92,2.33.13,2.43,2.37,43.84,2.67,49.42,9.24.5,31.83,1.4,35.08.02,1.62-.69,2.24-1.39,2.86-2.07.92-1.02,1.78-1.99,5.23-2.31,3.37-.31,6.9-1.52,10.01-2.59,1.56-.54,2.95-1.01,4.15-1.32-.95-5.94-8.37-51.95-12.73-66.44-5.16-17.16-14.46-38.08-20.08-41.87-.32-.21-.41-.64-.19-.96.21-.31.64-.4.95-.19,6.69,4.51,16.27,28.09,20.64,42.61,4.66,15.51,12.78,66.73,12.86,67.25.06.36-.18.7-.54.78-1.26.27-2.83.81-4.63,1.42-3.18,1.09-6.78,2.33-10.34,2.66-2.91.27-3.51.94-4.34,1.86-.64.72-1.44,1.61-3.34,2.41-1.49.63-6.16.84-11.67.84h0Z"/>
      <path class="cls-1" d="m125.14,118.05l-.12-.09.08-.15c.23-.06.44-.11.66-.16l.14.09-.1.14c-.2.04-.42.1-.63.16h-.04Zm-1.28.37l-.12-.08.07-.15c.23-.07.44-.13.64-.19l.16.08-.08.15c-.21.06-.42.13-.64.19h-.02Zm-1.28.41l-.12-.08.08-.15c.21-.07.43-.14.63-.21l.15.08-.08.15c-.2.07-.42.14-.63.21h-.04Zm-1.26.43l-.11-.08.07-.15.63-.22.15.08-.08.15-.63.22h-.04Zm-1.26.43l-.11-.08.07-.15.63-.21.15.07-.08.15-.63.21h-.04Zm-1.26.42l-.12-.08.08-.15.63-.21.16.08-.08.15-.63.21h-.04Zm-1.28.4l-.11-.08.07-.15c.21-.07.43-.13.64-.2l.14.08-.07.15c-.21.07-.43.13-.64.2h-.04Zm-1.28.38l-.12-.09.08-.15c.21-.06.43-.12.64-.18l.15.08-.08.15c-.22.06-.43.12-.64.18h-.04Zm-1.29.34l-.12-.09.08-.15c.22-.05.43-.11.64-.16l.16.08-.08.15c-.23.06-.44.11-.66.17h-.02Zm-1.3.29l-.12-.1.1-.14c.21-.04.43-.09.64-.14l.14.09-.1.14c-.21.05-.43.1-.64.14h-.02Zm-1.31.24l-.12-.1.1-.14c.21-.03.44-.07.66-.11l.14.1-.09.14c-.23.04-.44.08-.67.11h-.01Zm-1.32.17l-.12-.11.11-.13c.21-.02.44-.04.66-.07l.13.1-.1.13c-.23.03-.45.05-.67.07h-.01Zm-1.32.17l-.12-.1.1-.14c.21-.04.43-.07.67-.1l.13.1-.11.13c-.23.03-.44.06-.64.1h-.02Zm-1.29.33l-.12-.08.08-.15c.2-.07.42-.13.64-.19l.14.09-.08.15c-.23.05-.43.12-.63.18h-.04Zm-1.18.6l-.1-.05.02-.17c.19-.13.38-.25.58-.35l.17.05-.06.16c-.19.1-.37.21-.55.33l-.07.02h0Zm-.97.91l-.07-.03v-.17c.13-.16.29-.32.45-.49h.17v.17c-.17.16-.31.32-.45.48l-.1.04h0Zm-.92.95l-.1-.04v-.17c.17-.14.32-.29.48-.46h.18s0,.17,0,.17c-.17.17-.32.33-.49.47l-.07.03h0Zm-1.09.78l-.1-.06.04-.16c.19-.11.38-.23.55-.36l.17.03-.02.17c-.18.13-.37.25-.56.37l-.07.02h0Zm-1.18.59l-.12-.08.07-.16.05.11-.02-.12c.2-.09.39-.17.57-.26l.16.05-.05.16c-.18.09-.38.18-.58.27h-.04s-.04.02-.04.02h0Zm-35.3.03h-.01l-.67-.04-.11-.13.12-.11.67.04.12.13-.12.11h0Zm1.34.07h-.01l-.67-.03-.11-.13.12-.11.67.03.12.13-.12.11h0Zm1.34.07h-.01l-.67-.03-.11-.13.12-.12.67.03.12.13-.12.11h0Zm1.34.06h-.01l-.67-.03-.11-.13.12-.12.67.03.12.13-.12.12h0Zm1.34.06h-.01l-.67-.03-.11-.13.12-.12.67.03.12.13-.12.11h0Zm28.66.04l-.12-.1.1-.14c.25-.04.47-.08.66-.13l.14.09-.1.14c-.19.05-.42.09-.66.13h-.02Zm-27.33.02h-.01l-.67-.03-.11-.13.12-.12.67.03.12.13-.12.11h0Zm1.32.06h0l-.67-.03-.12-.13.13-.12.67.03.12.13-.13.12h0Zm1.34.05h0l-.67-.03-.12-.13.13-.12.67.03.11.13-.12.12h0Zm23.34.04l-.12-.11.11-.13c.23-.02.45-.05.66-.07l.14.1-.11.13c-.21.03-.43.05-.67.07h-.01Zm-22.01,0h0l-.67-.02-.12-.13.13-.12.67.03.11.13-.12.12h0Zm1.34.05h0l-.67-.02-.12-.12.12-.12.67.02.12.13-.12.12h0Zm1.34.04h0l-.67-.02-.12-.13.12-.12.67.02.12.13-.12.12h0Zm18.01.01l-.12-.11.11-.13c.23-.02.45-.03.67-.05l.12.11-.11.13c-.21.02-.43.03-.67.05h0Zm-16.68.03h0l-.67-.02-.12-.12.12-.12.67.02.12.12-.12.12h0Zm1.34.04h-.01l-.66-.02-.12-.12.12-.12.67.02.12.12-.12.12h0Zm14.01,0l-.12-.12.11-.13c.23-.01.45-.02.67-.03l.13.11-.12.13c-.22.01-.44.02-.67.03h0Zm-12.69.02h0l-.67-.02-.12-.12.13-.12.67.02.12.12-.13.12h0Zm11.35.03l-.12-.12.12-.12c.23,0,.44-.01.67-.02l.12.12-.12.12c-.21,0-.44.02-.67.02h0Zm-10,0h-.68s-.12-.14-.12-.14l.13-.12h.67s.12.14.12.14l-.12.12h0Zm1.34.02h-.67s-.12-.13-.12-.13l.12-.12h.67s.12.13.12.13l-.12.12h0Zm7.33,0l-.12-.12.12-.12c.23,0,.44,0,.67-.01l.12.12-.12.12c-.21,0-.44,0-.67.01h0Zm-6,.01h-.67s-.12-.13-.12-.13l.12-.12h.67s.12.13.12.13l-.12.12h0Zm4.66,0l-.12-.12.12-.12h.67s.12.11.12.11l-.12.12h-.67Zm-3.33,0h-.67s-.12-.13-.12-.13l.12-.12h.67s.12.13.12.13l-.12.12h0Zm1.99,0l-.12-.12.12-.12h.67s.12.12.12.12l-.12.12h-.67Zm-.67,0h-.67s-.12-.12-.12-.12l.12-.12h.67s.13.12.13.12l-.13.12h0Z"/>
      <path class="cls-1" d="m92.09,11.99l-.1-.05c-.26-.34-.42-.52-.42-.52l.02-.17.17.02s.14.18.42.53l-.02.17-.07.03h0Zm.81,1.06l-.1-.05c-.14-.19-.27-.37-.41-.53l.02-.17.17.02c.13.16.26.34.41.53l-.02.17-.07.03h0Zm.8,1.07l-.1-.05c-.14-.19-.27-.37-.39-.54l.02-.17.17.03c.12.17.25.35.39.54l-.02.17-.07.02h0Zm.77,1.08l-.1-.05c-.13-.19-.26-.37-.38-.54l.02-.17.17.03c.12.18.25.36.38.54l-.02.17-.07.02h0Zm.76,1.09l-.09-.05c-.13-.19-.25-.37-.38-.55l.04-.17.17.03c.12.18.25.36.38.55l-.04.17-.07.02h0Zm.75,1.11l-.1-.05c-.13-.19-.25-.37-.37-.55l.02-.17.17.03c.13.18.25.37.38.55l-.04.17-.07.02h0Zm.74,1.11l-.11-.05c-.12-.19-.24-.38-.36-.56l.04-.17.17.03c.12.18.24.37.36.56l-.04.17-.06.02h0Zm.72,1.12l-.11-.06c-.12-.19-.24-.38-.35-.56l.04-.17.17.04c.12.18.24.37.36.56l-.05.17-.06.02h0Zm.7,1.13l-.11-.06c-.11-.19-.23-.38-.35-.57l.04-.17.17.04c.12.19.24.38.36.57l-.05.17-.06.02h0Zm.69,1.14l-.11-.06c-.12-.19-.23-.38-.35-.57l.05-.17.17.04c.11.19.23.38.33.57l-.04.17-.06.02h0Zm.67,1.15l-.11-.06c-.11-.19-.23-.39-.33-.58l.05-.16.17.04c.11.19.21.39.33.58l-.05.16-.06.02h0Zm.64,1.17l-.11-.06c-.11-.2-.21-.39-.32-.58l.05-.16.17.05c.11.19.21.39.32.59l-.05.16-.06.02h0Zm.63,1.17l-.11-.06c-.1-.2-.2-.39-.31-.59l.05-.16.17.05c.11.2.2.39.31.59l-.05.16h-.06Zm.62,1.19l-.12-.07c-.1-.2-.19-.4-.3-.59l.05-.16.17.05c.11.2.2.4.31.59l-.06.16h-.05Zm.58,1.2l-.11-.07c-.1-.2-.2-.4-.3-.6l.06-.16.17.05c.1.2.19.4.29.6l-.06.16h-.05Zm.56,1.21l-.11-.07c-.09-.2-.19-.4-.29-.61l.06-.16.17.06c.1.2.18.4.27.61l-.06.16h-.05Zm.54,1.22l-.11-.07c-.1-.2-.18-.41-.26-.61l.06-.16.15.06c.1.2.18.41.26.61l-.06.16h-.05Zm.52,1.22l-.11-.07c-.08-.2-.18-.4-.26-.61l.06-.16.16.06c.1.21.18.41.27.61l-.07.16h-.05Zm.55,1.22l-.12-.07c-.08-.2-.18-.4-.26-.61l.06-.16.15.06c.1.21.18.41.27.61l-.06.16h-.05Zm.55,1.21l-.11-.07c-.08-.2-.18-.4-.27-.61l.06-.16.15.06c.1.21.19.41.29.6l-.06.16h-.06Zm.58,1.2l-.11-.07c-.1-.19-.19-.39-.3-.6l.06-.16.17.06c.1.21.19.4.29.6l-.06.16h-.05Zm.6,1.19l-.11-.07c-.1-.19-.2-.39-.3-.59l.05-.16.17.05c.1.21.2.4.3.59l-.05.16h-.06Zm.63,1.18l-.11-.06c-.11-.19-.21-.38-.32-.59l.05-.16.17.05c.11.2.22.4.32.58l-.05.16-.06.02h0Zm.67,1.16l-.11-.06c-.11-.18-.23-.37-.33-.58l.04-.16.17.05c.12.2.23.39.33.57l-.04.17-.06.02h0Zm.7,1.13l-.1-.05c-.12-.17-.24-.36-.37-.56l.04-.17.17.04c.13.2.25.39.36.56l-.02.17-.07.02h0Zm.77,1.08l-.09-.05c-.12-.15-.25-.33-.41-.54l.04-.17.17.03c.14.2.27.38.39.53l-.02.17-.07.03h0Zm.92.97l-.07-.02c-.08-.06-.25-.19-.5-.47v-.17h.18c.24.27.39.4.47.45l.02.17-.1.05h0Z"/>
      <path class="cls-1" d="m107.04,126.05c-.02-.13-.67-3.6-4.83-36.87-4.16-33.23-17.68-76.21-17.82-76.64l.64-.2c.13.43,13.67,43.47,17.84,76.76,4.15,33.15,4.82,36.8,4.82,36.83l-.64.13h0Z"/>
      <path class="cls-1" d="m74.42,13.25c.43,1.65.89,3.3,1.3,4.96.39,1.66.77,3.32,1.13,4.98.72,3.33,1.37,6.68,1.96,10.03,1.18,6.71,2.11,13.46,2.87,20.22-.87-6.75-1.92-13.48-3.2-20.16-.64-3.34-1.35-6.67-2.12-9.98-.38-1.66-.79-3.31-1.22-4.95-.43-1.65-.91-3.27-1.36-4.9l.63-.2h0Z"/>
      <path class="cls-1" d="m76.08,19.56c.08,6.89.19,13.79.36,20.68.08,3.45.18,6.89.31,10.34.13,3.45.27,6.89.57,10.33-.36-3.43-.55-6.87-.74-10.32-.18-3.44-.33-6.89-.48-10.34-.27-6.89-.5-13.79-.68-20.68h.66Z"/>
      <path class="cls-1" d="m94.04,6.49c-.31,0-.6-.22-.67-.54l-.86-3.95c-.08-.37.14-.74.52-.82.37-.08.74.15.81.53l.87,3.95c.08.37-.15.74-.52.82l-.16.02h0Z"/>
    </g>
  </g>
</svg>